PathFileType	4	(X/Y/Z)	C:/Users/opensim2020/Desktop/walking_exp_matlab/subject01_walking15_straight_03.trc																																																																																																																															
DataRate	CameraRate	NumFrames	NumMarkers	Units	OrigDataRate	OrigDataStartFrame	OrigNumFrames																																																																																																																											
100	100	5	43	mm	100	1708	145																																																																																																																											
Frame#	Time	LFHD			RFHD			LBHD			RBHD			C7			T10			CLAV			STRN			RBAK			LSHO			LUPA			LELB			LFRM			LWRA			LWRB			LFIN			RSHO			RUPA			RELB			RFRM			RWRA			RWRB			RFIN			LASI			RASI			LPSI			RPSI			LTHI			LKNE			LTIB			LANK			LHEE			LTOE			RTHI			RKNE			RTIB			RANK			RHEE			RTOE			*39			*40			*41			*42		
		X1	Y1	Z1	X2	Y2	Z2	X3	Y3	Z3	X4	Y4	Z4	X5	Y5	Z5	X6	Y6	Z6	X7	Y7	Z7	X8	Y8	Z8	X9	Y9	Z9	X10	Y10	Z10	X11	Y11	Z11	X12	Y12	Z12	X13	Y13	Z13	X14	Y14	Z14	X15	Y15	Z15	X16	Y16	Z16	X17	Y17	Z17	X18	Y18	Z18	X19	Y19	Z19	X20	Y20	Z20	X21	Y21	Z21	X22	Y22	Z22	X23	Y23	Z23	X24	Y24	Z24	X25	Y25	Z25	X26	Y26	Z26	X27	Y27	Z27	X28	Y28	Z28	X29	Y29	Z29	X30	Y30	Z30	X31	Y31	Z31	X32	Y32	Z32	X33	Y33	Z33	X34	Y34	Z34	X35	Y35	Z35	X36	Y36	Z36	X37	Y37	Z37	X38	Y38	Z38	X39	Y39	Z39	X40	Y40	Z40	X41	Y41	Z41	X42	Y42	Z42	X43	Y43	Z43
																																																																																																																																		
109	1.08	543.88776	1649.79443	1392.45166	592.21436	1662.0011	1494.88269	436.86502	1607.35193	1439.3999	484.96503	1618.43396	1548.26257	412.97131	1416.94226	1480.4519	370.41299	1125.06311	1500.24878	557.34589	1349.13232	1466.44604	596.10779	1192.16064	1467.48083	360.99634	1232.83545	1572.20276	479.53644	1377.42749	1313.11914	403.64282	1200.33228	1245.28467	355.24078	1060.83948	1261.23865	349.29468	947.97675	1237.60547	385.15585	811.4469	1247.85425	328.23926	827.16077	1235.65723	345.24261	747.31592	1217.17114	506.88605	1396.8009	1619.49109	452.57373	1212.64136	1741.96228	465.56302	1085.00269	1761.81018	560.62811	1001.03479	1773.10144	688.16156	962.87354	1726.35266	663.14911	933.92078	1768.47461	742.52588	905.51178	1759.29089	543.52838	920.61987	1395.01941	537.88525	918.54156	1611.93323	356.71078	926.44562	1437.39844	353.08749	940.5838	1579.79675	600.40704	606.22357	1319.53479	646.97046	483.46161	1345.28516	656.40851	297.6098	1335.52832	721.46716	82.52837	1383.3053	697.7525	39.8025	1443.62878	864.08118	94.67486	1359.41968	408.31488	598.97876	1668.12671	373.33603	440.76035	1645.17175	268.80417	297.15906	1653.20435	180.10818	108.13342	1610.38733	120.15833	87.12901	1562.75745	302.73874	34.76863	1605.4397	573.36188	1693.90198	1474.39136	1973.10095	1023.82379	-3101.93896	2012.54785	1022.12854	-3140.72583	NaN	NaN	NaN
110	1.09	556.10797	1648.68567	1388.96863	604.3642	1661.13721	1491.32043	449.44736	1605.3468	1435.89221	497.43805	1616.74841	1544.74084	426.7092	1415.44873	1477.0293	384.57175	1123.48206	1497.65601	571.21869	1347.79565	1463.25464	610.2002	1190.86169	1464.89026	374.72241	1231.50647	1569.12708	493.5061	1375.5177	1309.76721	417.25949	1197.99341	1242.80957	368.15442	1059.25183	1259.39673	360.89569	946.49872	1236.28394	394.76996	809.52179	1247.05359	338.1011	825.92133	1234.73975	353.73685	745.72516	1216.89844	520.45258	1395.59021	1616.0144	466.77036	1211.9248	1739.22766	479.80945	1084.43164	1759.66577	575.66638	1001.42645	1770.61304	703.32629	964.73883	1723.30957	678.89716	935.5481	1765.67261	758.58563	908.15295	1756.03369	559.09204	919.15375	1394.23901	551.75128	917.31891	1610.99451	371.88031	925.091	1434.65723	367.26062	939.10956	1576.90894	615.45776	605.14148	1318.87732	660.92584	482.36453	1344.45715	672.02924	295.82944	1334.70581	739.23572	81.39856	1383.22083	716.55884	38.37812	1443.86072	881.36823	95.57015	1357.90698	421.05878	598.10632	1667.4989	384.92868	440.04349	1645.021	276.58987	298.94513	1653.33435	183.02914	112.01987	1611.11926	122.59951	92.95983	1563.45215	303.15262	34.89407	1605.62	585.24908	1692.89246	1470.89111	1973.12146	1023.52441	-3102.00928	2012.52124	1022.06537	-3140.73364	NaN	NaN	NaN
111	1.1	568.52258	1647.50708	1385.26208	616.48413	1660.31873	1487.7301	462.01944	1603.30798	1432.20129	509.88437	1615.0498	1541.09692	440.42468	1413.92615	1473.32275	398.86636	1121.94312	1495.02612	585.11731	1346.48645	1459.9137	624.54565	1189.76501	1462.3136	388.57709	1230.26147	1565.91724	507.65372	1373.56665	1306.2478	430.39865	1196.04761	1239.82263	381.487	1057.62207	1257.36121	372.89517	944.99591	1234.72107	405.16791	807.61646	1245.97852	348.86456	824.68134	1233.46704	363.26544	744.06427	1216.31665	534.90814	1394.70203	1612.84534	480.62912	1211.28992	1736.33215	493.81335	1083.96252	1757.32776	590.27454	1001.78162	1768.10132	717.87689	966.05664	1720.28967	694.03284	936.76453	1762.87	773.90967	910.1214	1752.86206	574.74463	917.76086	1393.51526	565.98938	916.15234	1609.92725	387.10025	923.79224	1432.01184	381.65094	937.7049	1574.22498	631.82788	604.52252	1319.65771	675.10815	481.0372	1343.51489	686.51953	293.69794	1334.30542	753.61816	79.43644	1383.70264	731.60522	36.85567	1444.87537	895.69806	94.2393	1357.37537	434.73666	597.17896	1666.78906	397.63794	439.27988	1644.9939	285.26596	300.85791	1653.43372	186.33618	116.40807	1611.79211	125.57739	99.45124	1564.32764	303.7215	35.13226	1605.93896	597.10724	1691.92114	1467.27014	1973.07361	1023.41937	-3102.02271	2012.54028	1022.09229	-3140.72656	NaN	NaN	NaN
112	1.11	580.59937	1646.36047	1381.68054	628.38971	1659.50439	1483.99219	474.57727	1601.25854	1428.36523	522.25714	1613.37085	1537.32996	454.24936	1412.47437	1469.55896	413.3587	1120.38574	1492.25012	599.19214	1345.26929	1456.50684	638.92163	1188.62549	1459.56848	402.54294	1229.00708	1562.5592	521.84381	1371.62476	1302.58398	445.12576	1194.21765	1236.41919	395.01752	1055.89001	1255.13782	385.4537	943.43256	1233.03027	416.48575	805.93878	1244.51501	360.25159	823.32269	1232.26392	373.76431	742.19434	1215.58203	548.51904	1393.70691	1609.23328	494.18121	1210.74121	1733.15881	507.49338	1083.5564	1754.80017	604.35541	1001.93201	1765.47229	731.91888	966.84491	1717.32214	708.49579	937.5885	1760.1532	788.49664	911.39191	1749.78345	590.74579	916.50555	1392.55798	580.29822	914.93585	1608.67847	402.59167	922.45276	1429.46265	396.38	935.92395	1571.48462	649.18933	604.32208	1320.90125	689.62262	479.52338	1342.6405	699.86346	291.36746	1334.34595	765.50262	77.59434	1384.52881	742.53418	36.06952	1445.48645	907.2478	90.83701	1357.69165	449.14282	596.04895	1665.83313	411.43716	438.05713	1644.93469	294.94168	302.71375	1653.34204	190.64354	121.33404	1612.59021	129.45351	106.479	1564.85046	303.99075	34.79821	1605.672	608.9101	1690.96057	1463.59412	1972.98792	1023.85065	-3101.96729	2012.54932	1022.08398	-3140.56714	NaN	NaN	NaN
113	1.12	592.90576	1645.15234	1377.87073	640.55817	1658.67334	1480.41931	487.18707	1599.25195	1424.39075	534.62158	1611.63538	1533.38794	468.02457	1410.89685	1465.46497	428.07578	1118.89026	1489.37646	613.28632	1344.12622	1453.03162	653.63867	1187.66162	1456.83557	416.61597	1227.65051	1559.04834	536.22241	1369.78271	1298.85803	459.47354	1191.81641	1233.40002	409.03973	1054.19531	1252.80554	398.5213	941.74817	1231.08472	428.67181	804.18475	1242.64331	372.3519	821.8028	1230.85706	385.35449	740.40833	1214.62927	561.41101	1392.84875	1605.27319	507.40732	1210.24194	1729.84961	520.9032	1083.29614	1752.11475	617.9679	1001.96289	1762.8009	745.45074	967.05005	1714.41528	722.26556	937.85846	1757.41992	802.34814	911.85571	1746.78345	606.85693	915.31635	1391.36194	595.13342	913.81281	1607.31616	418.25333	921.0368	1427.01624	411.44876	934.18964	1568.98425	666.55457	604.26703	1322.31311	704.4632	477.92856	1341.96985	712.37634	288.89069	1334.71594	774.76776	74.80205	1385.66895	749.27106	35.83024	1445.73938	916.48822	85.34285	1358.86951	464.5014	594.76367	1665.1012	426.31738	436.56079	1644.88184	305.44373	304.84552	1653.25989	195.47025	126.45127	1612.91187	134.21381	114.10235	1565.26587	304.50009	34.62214	1605.6073	620.73773	1690.0033	1459.85205	1973.026	1023.52679	-3101.94043	2012.59045	1021.96484	-3140.74268	NaN	NaN	NaN
